<svg width="14" height="14" viewBox="0 0 14 14" fill="none" xmlns="http://www.w3.org/2000/svg">
  <path
    fill="#F08C00"
    d="M13.8724 6.29782C13.9624 5.23536 13.0093 4.92528 12.6316 4.92528C11.1659 4.92478 9.69903 4.92528 8.23335 4.92403C8.44431 4.44656 8.70159 3.18104 8.37783 1.43729C8.24991 0.747781 7.85847 0.289269 7.35975 0.2985C6.95847 0.305734 6.57471 0.62754 6.53439 1.02917C6.49047 1.47072 6.38607 2.09887 6.28743 2.52894C5.97159 3.90298 4.28271 5.71682 3.21495 6.34971V13.0617C3.93951 13.4871 4.72503 13.6362 5.56407 13.6195C6.88959 13.5931 10.6758 13.616 11.362 13.6116C11.8475 13.6081 12.3318 13.3673 12.5649 12.7579C12.8831 11.9262 12.0628 11.5103 12.0628 11.5103C12.0628 11.5103 12.9609 11.5565 13.1658 10.719C13.3763 9.85989 12.5505 9.51962 12.5505 9.51962C13.1092 9.45626 13.4668 9.30509 13.6019 8.78171C13.7613 8.16504 13.3797 7.70229 12.7756 7.43437C12.8668 7.42539 13.7893 7.27047 13.8724 6.29782ZM2.28495 5.28326H0.577106C0.325586 5.28326 0.121826 5.4953 0.121826 5.75648V13.3499C0.121826 13.6116 0.325826 13.8231 0.577106 13.8231H2.28495C2.53647 13.8231 2.74023 13.6113 2.74023 13.3499V5.75648C2.74023 5.4953 2.53671 5.28326 2.28495 5.28326Z"
  />
</svg>