<svg id="svg" version="1.1" xmlns="http://www.w3.org/2000/svg" xmlns:xlink="http://www.w3.org/1999/xlink" width="400" height="400" viewBox="0, 0, 400,400">
<g>
<rect x="0" y="0" width="400" height="400" fill="#04d404" />
</g>
<g id="svgg"><path id="path0" d="M100.400 200.000 L 100.400 290.800 133.357 290.800 C 163.219 290.800,166.338 290.740,166.560 290.159 C 166.696 289.807,166.802 268.914,166.797 243.731 C 166.791 218.549,166.892 197.774,167.021 197.565 C 167.585 196.653,171.475 201.303,173.660 205.500 C 173.918 205.995,174.280 206.400,174.464 206.400 C 174.649 206.400,174.800 206.595,174.800 206.833 C 174.800 207.071,175.430 208.034,176.200 208.974 C 176.970 209.914,177.600 210.801,177.600 210.945 C 177.600 211.090,178.266 212.151,179.079 213.304 C 179.892 214.457,181.659 217.020,183.005 219.000 C 184.351 220.980,186.116 223.543,186.926 224.696 C 187.737 225.849,188.400 226.959,188.400 227.163 C 188.400 227.366,188.582 227.594,188.805 227.668 C 189.028 227.743,189.793 228.737,190.505 229.877 C 191.217 231.018,192.700 233.249,193.800 234.836 C 194.900 236.422,196.070 238.134,196.400 238.640 C 196.730 239.146,197.765 240.655,198.700 241.993 C 199.635 243.331,200.400 244.591,200.400 244.793 C 200.400 244.995,200.635 245.304,200.922 245.480 C 201.209 245.656,201.875 246.520,202.401 247.400 C 202.927 248.280,203.465 249.090,203.595 249.200 C 203.798 249.371,206.981 254.030,208.200 255.940 C 208.420 256.285,209.684 258.104,211.010 259.983 C 212.335 261.863,213.856 264.120,214.389 265.000 C 214.922 265.880,215.458 266.690,215.580 266.800 C 216.118 267.286,219.200 272.064,219.200 272.413 C 219.200 272.626,219.386 272.800,219.613 272.800 C 219.839 272.800,220.142 273.115,220.286 273.500 C 220.524 274.142,221.925 276.326,222.401 276.800 C 222.512 276.910,223.142 277.810,223.801 278.800 C 224.461 279.790,225.135 280.660,225.300 280.733 C 225.465 280.807,225.600 281.034,225.600 281.237 C 225.600 281.441,226.230 282.505,227.000 283.600 C 227.770 284.695,228.400 285.774,228.400 285.996 C 228.400 286.218,228.548 286.400,228.729 286.400 C 229.086 286.400,231.200 289.471,231.200 289.989 C 231.200 290.714,234.470 290.789,266.300 290.795 L 299.600 290.800 299.600 199.998 L 299.600 109.195 266.700 109.298 L 233.800 109.400 233.698 155.652 C 233.618 191.984,233.490 201.993,233.098 202.316 C 232.270 203.001,230.811 201.400,226.977 195.600 C 225.014 192.630,223.181 190.056,222.904 189.880 C 222.627 189.704,222.400 189.367,222.400 189.131 C 222.400 188.895,221.545 187.510,220.500 186.053 C 219.455 184.596,218.420 183.111,218.200 182.752 C 217.980 182.393,217.035 180.984,216.100 179.621 C 215.165 178.258,214.400 176.976,214.400 176.772 C 214.400 176.567,214.252 176.400,214.071 176.400 C 213.709 176.400,211.600 173.326,211.600 172.797 C 211.600 172.616,211.465 172.407,211.300 172.333 C 211.035 172.215,207.658 167.439,206.600 165.685 C 206.380 165.321,205.615 164.226,204.900 163.254 C 204.185 162.281,203.600 161.241,203.600 160.942 C 203.600 160.644,203.445 160.400,203.256 160.400 C 202.868 160.400,199.600 155.770,199.600 155.221 C 199.600 155.026,199.465 154.807,199.300 154.733 C 199.135 154.660,198.461 153.790,197.801 152.800 C 197.142 151.810,196.508 150.910,196.392 150.800 C 196.188 150.607,195.036 148.890,194.205 147.544 C 193.429 146.287,187.418 137.399,187.209 137.200 C 186.688 136.705,183.600 131.939,183.600 131.630 C 183.600 131.441,183.330 131.182,183.000 131.055 C 182.670 130.929,182.400 130.577,182.400 130.275 C 182.400 129.972,182.040 129.398,181.600 129.000 C 181.160 128.602,180.800 128.111,180.800 127.909 C 180.800 127.708,180.575 127.308,180.300 127.020 C 180.025 126.733,179.577 126.161,179.305 125.749 C 176.510 121.517,174.305 118.243,173.079 116.504 C 172.265 115.351,171.600 114.226,171.600 114.004 C 171.600 113.782,171.425 113.600,171.210 113.600 C 170.996 113.600,170.564 113.105,170.251 112.500 C 169.937 111.895,169.221 110.905,168.659 110.300 L 167.638 109.200 134.019 109.200 L 100.400 109.200 100.400 200.000 " stroke="none" fill="#fafbfb" fill-rule="evenodd"></path><path id="path3" d="M100.267 108.667 C 99.837 109.096,99.946 291.120,100.377 291.386 C 101.128 291.850,166.499 291.616,167.064 291.146 C 167.506 290.780,167.600 282.690,167.600 244.994 C 167.600 208.311,167.701 199.247,168.110 199.090 C 168.420 198.971,169.749 200.565,171.494 203.147 C 173.075 205.486,176.176 210.010,178.387 213.200 C 180.597 216.390,182.525 219.270,182.672 219.600 C 182.819 219.930,183.679 221.190,184.584 222.400 C 186.068 224.385,193.619 235.490,194.600 237.131 C 194.820 237.499,195.090 237.890,195.200 238.000 C 195.526 238.326,196.856 240.264,202.508 248.649 C 205.456 253.022,208.931 258.130,210.229 260.000 C 212.511 263.286,214.745 266.563,225.761 282.786 C 228.599 286.966,231.220 290.656,231.585 290.986 C 232.164 291.510,236.571 291.589,266.024 291.607 L 299.800 291.627 299.800 200.113 L 299.800 108.600 266.600 108.496 C 235.743 108.400,233.365 108.441,232.900 109.073 C 232.507 109.607,232.400 119.493,232.400 155.306 C 232.400 197.362,232.350 200.849,231.742 200.729 C 231.380 200.658,228.902 197.360,226.235 193.400 C 223.567 189.440,220.143 184.400,218.625 182.200 C 217.108 180.000,214.761 176.580,213.412 174.600 C 208.984 168.103,203.879 160.643,202.225 158.251 C 201.331 156.958,200.416 155.608,200.192 155.251 C 198.447 152.469,197.346 150.829,196.535 149.800 C 195.458 148.436,195.164 148.025,194.600 147.101 C 194.144 146.353,186.205 134.623,184.516 132.200 C 183.902 131.320,183.265 130.540,183.100 130.467 C 182.935 130.393,182.800 130.166,182.800 129.963 C 182.800 129.759,182.134 128.649,181.321 127.496 C 179.629 125.098,175.827 119.537,172.094 114.000 C 170.685 111.910,169.156 109.795,168.696 109.300 L 167.861 108.400 134.197 108.400 C 115.682 108.400,100.413 108.520,100.267 108.667 M168.659 110.300 C 169.221 110.905,169.937 111.895,170.251 112.500 C 170.564 113.105,170.996 113.600,171.210 113.600 C 171.425 113.600,171.600 113.782,171.600 114.004 C 171.600 114.226,172.265 115.351,173.079 116.504 C 174.305 118.243,176.510 121.517,179.305 125.749 C 179.577 126.161,180.025 126.733,180.300 127.020 C 180.575 127.308,180.800 127.708,180.800 127.909 C 180.800 128.111,181.160 128.602,181.600 129.000 C 182.040 129.398,182.400 129.972,182.400 130.275 C 182.400 130.577,182.670 130.929,183.000 131.055 C 183.330 131.182,183.600 131.441,183.600 131.630 C 183.600 131.939,186.688 136.705,187.209 137.200 C 187.418 137.399,193.429 146.287,194.205 147.544 C 195.036 148.890,196.188 150.607,196.392 150.800 C 196.508 150.910,197.142 151.810,197.801 152.800 C 198.461 153.790,199.135 154.660,199.300 154.733 C 199.465 154.807,199.600 155.026,199.600 155.221 C 199.600 155.770,202.868 160.400,203.256 160.400 C 203.445 160.400,203.600 160.644,203.600 160.942 C 203.600 161.241,204.185 162.281,204.900 163.254 C 205.615 164.226,206.380 165.321,206.600 165.685 C 207.658 167.439,211.035 172.215,211.300 172.333 C 211.465 172.407,211.600 172.616,211.600 172.797 C 211.600 173.326,213.709 176.400,214.071 176.400 C 214.252 176.400,214.400 176.567,214.400 176.772 C 214.400 176.976,215.165 178.258,216.100 179.621 C 217.035 180.984,217.980 182.393,218.200 182.752 C 218.420 183.111,219.455 184.596,220.500 186.053 C 221.545 187.510,222.400 188.895,222.400 189.131 C 222.400 189.367,222.627 189.704,222.904 189.880 C 223.181 190.056,225.014 192.630,226.977 195.600 C 230.811 201.400,232.270 203.001,233.098 202.316 C 233.490 201.993,233.618 191.984,233.698 155.652 L 233.800 109.400 266.700 109.298 L 299.600 109.195 299.600 199.998 L 299.600 290.800 266.300 290.795 C 234.470 290.789,231.200 290.714,231.200 289.989 C 231.200 289.471,229.086 286.400,228.729 286.400 C 228.548 286.400,228.400 286.218,228.400 285.996 C 228.400 285.774,227.770 284.695,227.000 283.600 C 226.230 282.505,225.600 281.441,225.600 281.237 C 225.600 281.034,225.465 280.807,225.300 280.733 C 225.135 280.660,224.461 279.790,223.801 278.800 C 223.142 277.810,222.512 276.910,222.401 276.800 C 221.925 276.326,220.524 274.142,220.286 273.500 C 220.142 273.115,219.839 272.800,219.613 272.800 C 219.386 272.800,219.200 272.626,219.200 272.413 C 219.200 272.064,216.118 267.286,215.580 266.800 C 215.458 266.690,214.922 265.880,214.389 265.000 C 213.856 264.120,212.335 261.863,211.010 259.983 C 209.684 258.104,208.420 256.285,208.200 255.940 C 206.981 254.030,203.798 249.371,203.595 249.200 C 203.465 249.090,202.927 248.280,202.401 247.400 C 201.875 246.520,201.209 245.656,200.922 245.480 C 200.635 245.304,200.400 244.995,200.400 244.793 C 200.400 244.591,199.635 243.331,198.700 241.993 C 197.765 240.655,196.730 239.146,196.400 238.640 C 196.070 238.134,194.900 236.422,193.800 234.836 C 192.700 233.249,191.217 231.018,190.505 229.877 C 189.793 228.737,189.028 227.743,188.805 227.668 C 188.582 227.594,188.400 227.366,188.400 227.163 C 188.400 226.959,187.737 225.849,186.926 224.696 C 186.116 223.543,184.351 220.980,183.005 219.000 C 181.659 217.020,179.892 214.457,179.079 213.304 C 178.266 212.151,177.600 211.090,177.600 210.945 C 177.600 210.801,176.970 209.914,176.200 208.974 C 175.430 208.034,174.800 207.071,174.800 206.833 C 174.800 206.595,174.649 206.400,174.464 206.400 C 174.280 206.400,173.918 205.995,173.660 205.500 C 171.475 201.303,167.585 196.653,167.021 197.565 C 166.892 197.774,166.791 218.549,166.797 243.731 C 166.802 268.914,166.696 289.807,166.560 290.159 C 166.338 290.740,163.219 290.800,133.357 290.800 L 100.400 290.800 100.400 200.000 L 100.400 109.200 134.019 109.200 L 167.638 109.200 168.659 110.300 " stroke="none" fill="#9ce4ac" fill-rule="evenodd"></path><path id="path4" d="M100.080 108.080 C 99.381 108.779,99.381 291.221,100.080 291.920 C 100.852 292.692,166.365 292.606,167.424 291.832 C 168.183 291.277,168.202 290.291,168.285 245.732 C 168.332 220.689,168.479 200.236,168.611 200.279 C 168.950 200.391,170.400 202.269,170.400 202.596 C 170.400 202.744,171.030 203.634,171.800 204.574 C 172.570 205.514,173.200 206.415,173.200 206.578 C 173.200 206.741,173.515 207.286,173.900 207.791 C 174.285 208.295,174.870 209.110,175.200 209.603 C 175.530 210.095,175.982 210.701,176.205 210.949 C 176.427 211.197,176.828 211.895,177.096 212.500 C 177.364 213.105,177.767 213.600,177.991 213.600 C 178.216 213.600,178.400 213.774,178.400 213.987 C 178.400 214.201,179.165 215.469,180.100 216.807 C 181.035 218.145,182.070 219.672,182.400 220.200 C 182.730 220.728,183.798 222.294,184.773 223.680 C 187.424 227.449,189.749 230.817,190.205 231.549 C 191.084 232.962,192.192 234.610,192.391 234.800 C 192.854 235.243,194.270 237.444,194.514 238.100 C 194.658 238.485,194.961 238.800,195.187 238.800 C 195.414 238.800,195.600 238.982,195.600 239.204 C 195.600 239.652,198.227 243.570,198.950 244.200 C 199.203 244.420,199.631 245.050,199.902 245.600 C 200.441 246.695,201.285 248.085,201.601 248.400 C 201.712 248.510,202.342 249.410,203.001 250.400 C 203.661 251.390,204.335 252.260,204.500 252.333 C 204.665 252.407,204.800 252.694,204.800 252.971 C 204.800 253.249,205.160 253.802,205.600 254.200 C 206.040 254.598,206.400 255.172,206.400 255.475 C 206.400 255.777,206.670 256.129,207.000 256.255 C 207.330 256.382,207.600 256.630,207.600 256.807 C 207.600 257.328,209.712 260.400,210.071 260.400 C 210.252 260.400,210.400 260.642,210.400 260.939 C 210.400 261.235,210.715 261.848,211.100 262.301 C 211.953 263.305,212.348 263.877,214.487 267.200 C 215.407 268.630,216.259 269.890,216.380 270.000 C 216.831 270.410,218.263 272.625,218.514 273.300 C 218.658 273.685,218.961 274.000,219.187 274.000 C 219.414 274.000,219.600 274.233,219.600 274.519 C 219.600 275.087,220.601 276.524,221.700 277.534 C 222.085 277.888,222.400 278.395,222.400 278.660 C 222.400 278.926,222.625 279.382,222.900 279.674 C 223.175 279.966,224.109 281.284,224.975 282.603 C 225.842 283.921,226.744 285.180,226.980 285.400 C 227.216 285.620,227.619 286.250,227.874 286.800 C 228.130 287.350,229.165 288.835,230.175 290.100 L 232.012 292.400 265.726 292.400 C 291.415 292.400,299.554 292.286,299.920 291.920 C 300.683 291.157,300.611 108.673,299.848 108.040 C 299.199 107.501,233.336 107.583,232.500 108.124 C 232.105 108.379,232.000 117.955,232.000 153.791 C 232.000 202.307,232.032 201.369,230.482 198.726 C 229.924 197.777,228.920 196.295,228.249 195.434 C 227.578 194.573,226.687 193.223,226.268 192.434 C 225.850 191.645,225.214 190.694,224.854 190.319 C 223.986 189.416,223.521 188.777,222.800 187.495 C 222.229 186.480,218.240 180.598,215.076 176.104 C 214.264 174.951,213.600 173.826,213.600 173.604 C 213.600 173.382,213.414 173.200,213.187 173.200 C 212.961 173.200,212.663 172.885,212.526 172.500 C 212.388 172.115,211.674 171.050,210.938 170.133 C 210.202 169.216,209.600 168.376,209.600 168.267 C 209.600 167.882,205.118 161.398,204.761 161.267 C 204.563 161.193,204.400 160.974,204.400 160.779 C 204.400 160.230,201.132 155.600,200.744 155.600 C 200.555 155.600,200.400 155.268,200.400 154.862 C 200.400 154.456,200.040 153.798,199.600 153.400 C 199.160 153.002,198.800 152.434,198.800 152.138 C 198.800 151.842,198.665 151.597,198.500 151.592 C 198.335 151.588,197.660 150.692,197.000 149.600 C 196.340 148.508,195.665 147.612,195.500 147.608 C 195.335 147.603,195.200 147.367,195.200 147.081 C 195.200 146.555,194.369 145.317,193.100 143.953 C 192.715 143.539,192.400 143.108,192.400 142.996 C 192.400 142.884,191.770 141.895,191.000 140.800 C 190.230 139.705,189.600 138.671,189.600 138.504 C 189.600 138.337,188.970 137.492,188.200 136.627 C 187.430 135.762,186.800 134.897,186.800 134.703 C 186.800 134.400,184.839 131.584,183.606 130.117 C 183.383 129.851,183.200 129.474,183.200 129.279 C 183.200 129.084,182.840 128.598,182.400 128.200 C 181.960 127.802,181.600 127.307,181.600 127.101 C 181.600 126.895,181.285 126.314,180.900 125.809 C 180.515 125.305,179.930 124.484,179.600 123.984 C 179.270 123.484,178.685 122.793,178.300 122.449 C 177.915 122.104,177.600 121.497,177.600 121.099 C 177.600 120.701,177.330 120.271,177.000 120.145 C 176.670 120.018,176.400 119.767,176.400 119.587 C 176.400 119.075,173.086 114.400,172.724 114.400 C 172.546 114.400,172.400 114.156,172.400 113.858 C 172.400 113.559,171.770 112.490,171.000 111.482 C 170.230 110.473,169.600 109.462,169.600 109.234 C 169.600 109.007,169.069 108.546,168.420 108.210 C 166.851 107.399,100.887 107.273,100.080 108.080 M168.696 109.300 C 169.156 109.795,170.685 111.910,172.094 114.000 C 175.827 119.537,179.629 125.098,181.321 127.496 C 182.134 128.649,182.800 129.759,182.800 129.963 C 182.800 130.166,182.935 130.393,183.100 130.467 C 183.265 130.540,183.902 131.320,184.516 132.200 C 186.205 134.623,194.144 146.353,194.600 147.101 C 195.164 148.025,195.458 148.436,196.535 149.800 C 197.346 150.829,198.447 152.469,200.192 155.251 C 200.416 155.608,201.331 156.958,202.225 158.251 C 203.879 160.643,208.984 168.103,213.412 174.600 C 214.761 176.580,217.108 180.000,218.625 182.200 C 220.143 184.400,223.567 189.440,226.235 193.400 C 228.902 197.360,231.380 200.658,231.742 200.729 C 232.350 200.849,232.400 197.362,232.400 155.306 C 232.400 119.493,232.507 109.607,232.900 109.073 C 233.365 108.441,235.743 108.400,266.600 108.496 L 299.800 108.600 299.800 200.113 L 299.800 291.627 266.024 291.607 C 236.571 291.589,232.164 291.510,231.585 290.986 C 231.220 290.656,228.599 286.966,225.761 282.786 C 214.745 266.563,212.511 263.286,210.229 260.000 C 208.931 258.130,205.456 253.022,202.508 248.649 C 196.856 240.264,195.526 238.326,195.200 238.000 C 195.090 237.890,194.820 237.499,194.600 237.131 C 193.619 235.490,186.068 224.385,184.584 222.400 C 183.679 221.190,182.819 219.930,182.672 219.600 C 182.525 219.270,180.597 216.390,178.387 213.200 C 176.176 210.010,173.075 205.486,171.494 203.147 C 169.749 200.565,168.420 198.971,168.110 199.090 C 167.701 199.247,167.600 208.311,167.600 244.994 C 167.600 282.690,167.506 290.780,167.064 291.146 C 166.499 291.616,101.128 291.850,100.377 291.386 C 99.946 291.120,99.837 109.096,100.267 108.667 C 100.413 108.520,115.682 108.400,134.197 108.400 L 167.861 108.400 168.696 109.300 " stroke="none" fill="#5ad076" fill-rule="evenodd"></path></g></svg>